<svg xmlns="http://www.w3.org/2000/svg" version="1.2" baseProfile="tiny" width="12" height="12" viewBox="0 0 12 12">
  <circle cx="6" cy="6" r="5" fill="none" stroke="#555555" stroke-width="1"/>
  <path d="M6 8.5a0.6 0.6 0 1 1 0-1.2 0.6 0.6 0 0 1 0 1.2zm0.8-2.6c-0.2 0.2-0.3 0.35-0.3 0.6v0.25h-1v-0.35c0-0.45 0.2-0.75 0.5-1.05l0.4-0.4c0.15-0.15 0.25-0.35 0.25-0.55 0-0.4-0.35-0.75-0.75-0.75-0.35 0-0.65 0.25-0.75 0.55l-0.95-0.25c0.2-0.75 0.9-1.3 1.7-1.3 1 0 1.75 0.75 1.75 1.75 0 0.45-0.2 0.85-0.5 1.15l-0.35 0.35z" fill="#555555"/>
</svg>
