<svg xmlns="http://www.w3.org/2000/svg" version="1.2" baseProfile="tiny" width="64.5" height="47.4" viewBox="21 -4 215 158"><path d="M25,50 l150,0 0,100 -150,0 z" stroke-width="4" stroke="black" fill="rgb(128,224,255)" fill-opacity="1"></path><path d="M195,40 m5 -23c-3.7 3.72-5.82 8.75-5.82 14s2.12 10.3 5.82 14h2.68v-2.89c-2.78-2.88-4.5-6.8-4.5-11.1 0-4.31 1.72-8.23 4.5-11.1v-2.89zm25.7 0v2.89c2.78 2.88 4.5 6.8 4.5 11.1 0 4.31-1.72 8.23-4.5 11.1v2.89h2.68c3.7-3.72 5.81-8.76 5.82-14 0.014-5.24-2.05-10.3-5.72-14zm-20.5 11.8h18v4.4h-18z" stroke-width="4" stroke="none" fill="black"></path></svg>
